<mxfile host="app.diagrams.net" modified="2024-07-08T02:21:04.943Z" agent="Mozilla/5.0 (Windows NT 10.0; Win64; x64) AppleWebKit/537.36 (KHTML, like Gecko) Chrome/126.0.0.0 Safari/537.36" etag="tDibnPmJbjOW65de29kQ" version="24.6.4" type="device">
  <diagram name="Page-1" id="2YBvvXClWsGukQMizWep">
    <mxGraphModel dx="1784" dy="534" grid="1" gridSize="10" guides="1" tooltips="1" connect="1" arrows="1" fold="1" page="1" pageScale="1" pageWidth="850" pageHeight="1100" math="0" shadow="0">
      <root>
        <mxCell id="0" />
        <mxCell id="1" parent="0" />
        <mxCell id="aM9ryv3xv72pqoxQDRHE-1" value="ga_function" style="shape=umlLifeline;perimeter=lifelinePerimeter;whiteSpace=wrap;html=1;container=0;dropTarget=0;collapsible=0;recursiveResize=0;outlineConnect=0;portConstraint=eastwest;newEdgeStyle={&quot;edgeStyle&quot;:&quot;elbowEdgeStyle&quot;,&quot;elbow&quot;:&quot;vertical&quot;,&quot;curved&quot;:0,&quot;rounded&quot;:0};" parent="1" vertex="1">
          <mxGeometry x="30" y="60" width="100" height="460" as="geometry" />
        </mxCell>
        <mxCell id="aM9ryv3xv72pqoxQDRHE-2" value="" style="html=1;points=[];perimeter=orthogonalPerimeter;outlineConnect=0;targetShapes=umlLifeline;portConstraint=eastwest;newEdgeStyle={&quot;edgeStyle&quot;:&quot;elbowEdgeStyle&quot;,&quot;elbow&quot;:&quot;vertical&quot;,&quot;curved&quot;:0,&quot;rounded&quot;:0};" parent="aM9ryv3xv72pqoxQDRHE-1" vertex="1">
          <mxGeometry x="45" y="280" width="10" height="100" as="geometry" />
        </mxCell>
        <mxCell id="aM9ryv3xv72pqoxQDRHE-8" value="mostrar soluciones" style="html=1;verticalAlign=bottom;endArrow=open;dashed=1;endSize=8;edgeStyle=elbowEdgeStyle;elbow=vertical;curved=0;rounded=0;" parent="1" edge="1">
          <mxGeometry x="-0.0045" relative="1" as="geometry">
            <mxPoint x="-180" y="460" as="targetPoint" />
            <Array as="points">
              <mxPoint x="-70" y="460" />
            </Array>
            <mxPoint x="-90" y="460" as="sourcePoint" />
            <mxPoint as="offset" />
          </mxGeometry>
        </mxCell>
        <mxCell id="tML09d7HEzUGs0Dw_Hdi-5" value="Interfaz" style="shape=umlLifeline;perimeter=lifelinePerimeter;whiteSpace=wrap;html=1;container=0;dropTarget=0;collapsible=0;recursiveResize=0;outlineConnect=0;portConstraint=eastwest;newEdgeStyle={&quot;edgeStyle&quot;:&quot;elbowEdgeStyle&quot;,&quot;elbow&quot;:&quot;vertical&quot;,&quot;curved&quot;:0,&quot;rounded&quot;:0};" vertex="1" parent="1">
          <mxGeometry x="-110" y="60" width="100" height="460" as="geometry" />
        </mxCell>
        <mxCell id="tML09d7HEzUGs0Dw_Hdi-6" value="&lt;span style=&quot;color: rgba(0, 0, 0, 0); font-family: monospace; font-size: 0px; text-align: start;&quot;&gt;%3CmxGraphModel%3E%3Croot%3E%3CmxCell%20id%3D%220%22%2F%3E%3CmxCell%20id%3D%221%22%20parent%3D%220%22%2F%3E%3CmxCell%20id%3D%222%22%20value%3D%22%3AObject%22%20style%3D%22shape%3DumlLifeline%3Bperimeter%3DlifelinePerimeter%3BwhiteSpace%3Dwrap%3Bhtml%3D1%3Bcontainer%3D0%3BdropTarget%3D0%3Bcollapsible%3D0%3BrecursiveResize%3D0%3BoutlineConnect%3D0%3BportConstraint%3Deastwest%3BnewEdgeStyle%3D%7B%26quot%3BedgeStyle%26quot%3B%3A%26quot%3BelbowEdgeStyle%26quot%3B%2C%26quot%3Belbow%26quot%3B%3A%26quot%3Bvertical%26quot%3B%2C%26quot%3Bcurved%26quot%3B%3A0%2C%26quot%3Brounded%26quot%3B%3A0%7D%3B%22%20vertex%3D%221%22%20parent%3D%221%22%3E%3CmxGeometry%20x%3D%2240%22%20y%3D%2240%22%20width%3D%22100%22%20height%3D%22300%22%20as%3D%22geometry%22%2F%3E%3C%2FmxCell%3E%3CmxCell%20id%3D%223%22%20value%3D%22%22%20style%3D%22html%3D1%3Bpoints%3D%5B%5D%3Bperimeter%3DorthogonalPerimeter%3BoutlineConnect%3D0%3BtargetShapes%3DumlLifeline%3BportConstraint%3Deastwest%3BnewEdgeStyle%3D%7B%26quot%3BedgeStyle%26quot%3B%3A%26quot%3BelbowEdgeStyle%26quot%3B%2C%26quot%3Belbow%26quot%3B%3A%26quot%3Bvertical%26quot%3B%2C%26quot%3Bcurved%26quot%3B%3A0%2C%26quot%3Brounded%26quot%3B%3A0%7D%3B%22%20vertex%3D%221%22%20parent%3D%222%22%3E%3CmxGeometry%20x%3D%2245%22%20y%3D%2270%22%20width%3D%2210%22%20height%3D%22190%22%20as%3D%22geometry%22%2F%3E%3C%2FmxCell%3E%3CmxCell%20id%3D%224%22%20value%3D%22dispatch%22%20style%3D%22html%3D1%3BverticalAlign%3Dbottom%3BstartArrow%3Doval%3BendArrow%3Dblock%3BstartSize%3D8%3BedgeStyle%3DelbowEdgeStyle%3Belbow%3Dvertical%3Bcurved%3D0%3Brounded%3D0%3B%22%20edge%3D%221%22%20parent%3D%222%22%20target%3D%223%22%3E%3CmxGeometry%20relative%3D%221%22%20as%3D%22geometry%22%3E%3CmxPoint%20x%3D%22-15%22%20y%3D%2270%22%20as%3D%22sourcePoint%22%2F%3E%3C%2FmxGeometry%3E%3C%2FmxCell%3E%3CmxCell%20id%3D%225%22%20value%3D%22%22%20style%3D%22html%3D1%3Bpoints%3D%5B%5D%3Bperimeter%3DorthogonalPerimeter%3BoutlineConnect%3D0%3BtargetShapes%3DumlLifeline%3BportConstraint%3Deastwest%3BnewEdgeStyle%3D%7B%26quot%3BedgeStyle%26quot%3B%3A%26quot%3BelbowEdgeStyle%26quot%3B%2C%26quot%3Belbow%26quot%3B%3A%26quot%3Bvertical%26quot%3B%2C%26quot%3Bcurved%26quot%3B%3A0%2C%26quot%3Brounded%26quot%3B%3A0%7D%3B%22%20vertex%3D%221%22%20parent%3D%222%22%3E%3CmxGeometry%20x%3D%2250%22%20y%3D%22120%22%20width%3D%2210%22%20height%3D%2280%22%20as%3D%22geometry%22%2F%3E%3C%2FmxCell%3E%3C%2Froot%3E%3C%2FmxGraphModel%3E&lt;/span&gt;&lt;span style=&quot;color: rgba(0, 0, 0, 0); font-family: monospace; font-size: 0px; text-align: start;&quot;&gt;%3CmxGraphModel%3E%3Croot%3E%3CmxCell%20id%3D%220%22%2F%3E%3CmxCell%20id%3D%221%22%20parent%3D%220%22%2F%3E%3CmxCell%20id%3D%222%22%20value%3D%22%3AObject%22%20style%3D%22shape%3DumlLifeline%3Bperimeter%3DlifelinePerimeter%3BwhiteSpace%3Dwrap%3Bhtml%3D1%3Bcontainer%3D0%3BdropTarget%3D0%3Bcollapsible%3D0%3BrecursiveResize%3D0%3BoutlineConnect%3D0%3BportConstraint%3Deastwest%3BnewEdgeStyle%3D%7B%26quot%3BedgeStyle%26quot%3B%3A%26quot%3BelbowEdgeStyle%26quot%3B%2C%26quot%3Belbow%26quot%3B%3A%26quot%3Bvertical%26quot%3B%2C%26quot%3Bcurved%26quot%3B%3A0%2C%26quot%3Brounded%26quot%3B%3A0%7D%3B%22%20vertex%3D%221%22%20parent%3D%221%22%3E%3CmxGeometry%20x%3D%2240%22%20y%3D%2240%22%20width%3D%22100%22%20height%3D%22300%22%20as%3D%22geometry%22%2F%3E%3C%2FmxCell%3E%3CmxCell%20id%3D%223%22%20value%3D%22%22%20style%3D%22html%3D1%3Bpoints%3D%5B%5D%3Bperimeter%3DorthogonalPerimeter%3BoutlineConnect%3D0%3BtargetShapes%3DumlLifeline%3BportConstraint%3Deastwest%3BnewEdgeStyle%3D%7B%26quot%3BedgeStyle%26quot%3B%3A%26quot%3BelbowEdgeStyle%26quot%3B%2C%26quot%3Belbow%26quot%3B%3A%26quot%3Bvertical%26quot%3B%2C%26quot%3Bcurved%26quot%3B%3A0%2C%26quot%3Brounded%26quot%3B%3A0%7D%3B%22%20vertex%3D%221%22%20parent%3D%222%22%3E%3CmxGeometry%20x%3D%2245%22%20y%3D%2270%22%20width%3D%2210%22%20height%3D%22190%22%20as%3D%22geometry%22%2F%3E%3C%2FmxCell%3E%3CmxCell%20id%3D%224%22%20value%3D%22dispatch%22%20style%3D%22html%3D1%3BverticalAlign%3Dbottom%3BstartArrow%3Doval%3BendArrow%3Dblock%3BstartSize%3D8%3BedgeStyle%3DelbowEdgeStyle%3Belbow%3Dvertical%3Bcurved%3D0%3Brounded%3D0%3B%22%20edge%3D%221%22%20parent%3D%222%22%20target%3D%223%22%3E%3CmxGeometry%20relative%3D%221%22%20as%3D%22geometry%22%3E%3CmxPoint%20x%3D%22-15%22%20y%3D%2270%22%20as%3D%22sourcePoint%22%2F%3E%3C%2FmxGeometry%3E%3C%2FmxCell%3E%3CmxCell%20id%3D%225%22%20value%3D%22%22%20style%3D%22html%3D1%3Bpoints%3D%5B%5D%3Bperimeter%3DorthogonalPerimeter%3BoutlineConnect%3D0%3BtargetShapes%3DumlLifeline%3BportConstraint%3Deastwest%3BnewEdgeStyle%3D%7B%26quot%3BedgeStyle%26quot%3B%3A%26quot%3BelbowEdgeStyle%26quot%3B%2C%26quot%3Belbow%26quot%3B%3A%26quot%3Bvertical%26quot%3B%2C%26quot%3Bcurved%26quot%3B%3A0%2C%26quot%3Brounded%26quot%3B%3A0%7D%3B%22%20vertex%3D%221%22%20parent%3D%222%22%3E%3CmxGeometry%20x%3D%2250%22%20y%3D%22120%22%20width%3D%2210%22%20height%3D%2280%22%20as%3D%22geometry%22%2F%3E%3C%2FmxCell%3E%3C%2Froot%3E%3C%2FmxGraphModel%3E&lt;/span&gt;" style="html=1;points=[];perimeter=orthogonalPerimeter;outlineConnect=0;targetShapes=umlLifeline;portConstraint=eastwest;newEdgeStyle={&quot;edgeStyle&quot;:&quot;elbowEdgeStyle&quot;,&quot;elbow&quot;:&quot;vertical&quot;,&quot;curved&quot;:0,&quot;rounded&quot;:0};" vertex="1" parent="tML09d7HEzUGs0Dw_Hdi-5">
          <mxGeometry x="45" y="70" width="10" height="330" as="geometry" />
        </mxCell>
        <mxCell id="tML09d7HEzUGs0Dw_Hdi-9" value="Usuario" style="shape=umlActor;verticalLabelPosition=bottom;verticalAlign=top;html=1;outlineConnect=0;" vertex="1" parent="1">
          <mxGeometry x="-200" y="40" width="30" height="60" as="geometry" />
        </mxCell>
        <mxCell id="tML09d7HEzUGs0Dw_Hdi-10" value="&lt;span style=&quot;color: rgba(0, 0, 0, 0); font-family: monospace; font-size: 0px; text-align: start;&quot;&gt;%3CmxGraphModel%3E%3Croot%3E%3CmxCell%20id%3D%220%22%2F%3E%3CmxCell%20id%3D%221%22%20parent%3D%220%22%2F%3E%3CmxCell%20id%3D%222%22%20value%3D%22%3AObject%22%20style%3D%22shape%3DumlLifeline%3Bperimeter%3DlifelinePerimeter%3BwhiteSpace%3Dwrap%3Bhtml%3D1%3Bcontainer%3D0%3BdropTarget%3D0%3Bcollapsible%3D0%3BrecursiveResize%3D0%3BoutlineConnect%3D0%3BportConstraint%3Deastwest%3BnewEdgeStyle%3D%7B%26quot%3BedgeStyle%26quot%3B%3A%26quot%3BelbowEdgeStyle%26quot%3B%2C%26quot%3Belbow%26quot%3B%3A%26quot%3Bvertical%26quot%3B%2C%26quot%3Bcurved%26quot%3B%3A0%2C%26quot%3Brounded%26quot%3B%3A0%7D%3B%22%20vertex%3D%221%22%20parent%3D%221%22%3E%3CmxGeometry%20x%3D%2240%22%20y%3D%2240%22%20width%3D%22100%22%20height%3D%22300%22%20as%3D%22geometry%22%2F%3E%3C%2FmxCell%3E%3CmxCell%20id%3D%223%22%20value%3D%22%22%20style%3D%22html%3D1%3Bpoints%3D%5B%5D%3Bperimeter%3DorthogonalPerimeter%3BoutlineConnect%3D0%3BtargetShapes%3DumlLifeline%3BportConstraint%3Deastwest%3BnewEdgeStyle%3D%7B%26quot%3BedgeStyle%26quot%3B%3A%26quot%3BelbowEdgeStyle%26quot%3B%2C%26quot%3Belbow%26quot%3B%3A%26quot%3Bvertical%26quot%3B%2C%26quot%3Bcurved%26quot%3B%3A0%2C%26quot%3Brounded%26quot%3B%3A0%7D%3B%22%20vertex%3D%221%22%20parent%3D%222%22%3E%3CmxGeometry%20x%3D%2245%22%20y%3D%2270%22%20width%3D%2210%22%20height%3D%22190%22%20as%3D%22geometry%22%2F%3E%3C%2FmxCell%3E%3CmxCell%20id%3D%224%22%20value%3D%22dispatch%22%20style%3D%22html%3D1%3BverticalAlign%3Dbottom%3BstartArrow%3Doval%3BendArrow%3Dblock%3BstartSize%3D8%3BedgeStyle%3DelbowEdgeStyle%3Belbow%3Dvertical%3Bcurved%3D0%3Brounded%3D0%3B%22%20edge%3D%221%22%20parent%3D%222%22%20target%3D%223%22%3E%3CmxGeometry%20relative%3D%221%22%20as%3D%22geometry%22%3E%3CmxPoint%20x%3D%22-15%22%20y%3D%2270%22%20as%3D%22sourcePoint%22%2F%3E%3C%2FmxGeometry%3E%3C%2FmxCell%3E%3CmxCell%20id%3D%225%22%20value%3D%22%22%20style%3D%22html%3D1%3Bpoints%3D%5B%5D%3Bperimeter%3DorthogonalPerimeter%3BoutlineConnect%3D0%3BtargetShapes%3DumlLifeline%3BportConstraint%3Deastwest%3BnewEdgeStyle%3D%7B%26quot%3BedgeStyle%26quot%3B%3A%26quot%3BelbowEdgeStyle%26quot%3B%2C%26quot%3Belbow%26quot%3B%3A%26quot%3Bvertical%26quot%3B%2C%26quot%3Bcurved%26quot%3B%3A0%2C%26quot%3Brounded%26quot%3B%3A0%7D%3B%22%20vertex%3D%221%22%20parent%3D%222%22%3E%3CmxGeometry%20x%3D%2250%22%20y%3D%22120%22%20width%3D%2210%22%20height%3D%2280%22%20as%3D%22geometry%22%2F%3E%3C%2FmxCell%3E%3C%2Froot%3E%3C%2FmxGraphModel%3E&lt;/span&gt;&lt;span style=&quot;color: rgba(0, 0, 0, 0); font-family: monospace; font-size: 0px; text-align: start;&quot;&gt;%3CmxGraphModel%3E%3Croot%3E%3CmxCell%20id%3D%220%22%2F%3E%3CmxCell%20id%3D%221%22%20parent%3D%220%22%2F%3E%3CmxCell%20id%3D%222%22%20value%3D%22%3AObject%22%20style%3D%22shape%3DumlLifeline%3Bperimeter%3DlifelinePerimeter%3BwhiteSpace%3Dwrap%3Bhtml%3D1%3Bcontainer%3D0%3BdropTarget%3D0%3Bcollapsible%3D0%3BrecursiveResize%3D0%3BoutlineConnect%3D0%3BportConstraint%3Deastwest%3BnewEdgeStyle%3D%7B%26quot%3BedgeStyle%26quot%3B%3A%26quot%3BelbowEdgeStyle%26quot%3B%2C%26quot%3Belbow%26quot%3B%3A%26quot%3Bvertical%26quot%3B%2C%26quot%3Bcurved%26quot%3B%3A0%2C%26quot%3Brounded%26quot%3B%3A0%7D%3B%22%20vertex%3D%221%22%20parent%3D%221%22%3E%3CmxGeometry%20x%3D%2240%22%20y%3D%2240%22%20width%3D%22100%22%20height%3D%22300%22%20as%3D%22geometry%22%2F%3E%3C%2FmxCell%3E%3CmxCell%20id%3D%223%22%20value%3D%22%22%20style%3D%22html%3D1%3Bpoints%3D%5B%5D%3Bperimeter%3DorthogonalPerimeter%3BoutlineConnect%3D0%3BtargetShapes%3DumlLifeline%3BportConstraint%3Deastwest%3BnewEdgeStyle%3D%7B%26quot%3BedgeStyle%26quot%3B%3A%26quot%3BelbowEdgeStyle%26quot%3B%2C%26quot%3Belbow%26quot%3B%3A%26quot%3Bvertical%26quot%3B%2C%26quot%3Bcurved%26quot%3B%3A0%2C%26quot%3Brounded%26quot%3B%3A0%7D%3B%22%20vertex%3D%221%22%20parent%3D%222%22%3E%3CmxGeometry%20x%3D%2245%22%20y%3D%2270%22%20width%3D%2210%22%20height%3D%22190%22%20as%3D%22geometry%22%2F%3E%3C%2FmxCell%3E%3CmxCell%20id%3D%224%22%20value%3D%22dispatch%22%20style%3D%22html%3D1%3BverticalAlign%3Dbottom%3BstartArrow%3Doval%3BendArrow%3Dblock%3BstartSize%3D8%3BedgeStyle%3DelbowEdgeStyle%3Belbow%3Dvertical%3Bcurved%3D0%3Brounded%3D0%3B%22%20edge%3D%221%22%20parent%3D%222%22%20target%3D%223%22%3E%3CmxGeometry%20relative%3D%221%22%20as%3D%22geometry%22%3E%3CmxPoint%20x%3D%22-15%22%20y%3D%2270%22%20as%3D%22sourcePoint%22%2F%3E%3C%2FmxGeometry%3E%3C%2FmxCell%3E%3CmxCell%20id%3D%225%22%20value%3D%22%22%20style%3D%22html%3D1%3Bpoints%3D%5B%5D%3Bperimeter%3DorthogonalPerimeter%3BoutlineConnect%3D0%3BtargetShapes%3DumlLifeline%3BportConstraint%3Deastwest%3BnewEdgeStyle%3D%7B%26quot%3BedgeStyle%26quot%3B%3A%26quot%3BelbowEdgeStyle%26quot%3B%2C%26quot%3Belbow%26quot%3B%3A%26quot%3Bvertical%26quot%3B%2C%26quot%3Bcurved%26quot%3B%3A0%2C%26quot%3Brounded%26quot%3B%3A0%7D%3B%22%20vertex%3D%221%22%20parent%3D%222%22%3E%3CmxGeometry%20x%3D%2250%22%20y%3D%22120%22%20width%3D%2210%22%20height%3D%2280%22%20as%3D%22geometry%22%2F%3E%3C%2FmxCell%3E%3C%2Froot%3E%3C%2FmxGraphModel%3E&lt;/span&gt;" style="html=1;points=[];perimeter=orthogonalPerimeter;outlineConnect=0;targetShapes=umlLifeline;portConstraint=eastwest;newEdgeStyle={&quot;edgeStyle&quot;:&quot;elbowEdgeStyle&quot;,&quot;elbow&quot;:&quot;vertical&quot;,&quot;curved&quot;:0,&quot;rounded&quot;:0};" vertex="1" parent="1">
          <mxGeometry x="-190" y="130" width="10" height="370" as="geometry" />
        </mxCell>
        <mxCell id="tML09d7HEzUGs0Dw_Hdi-16" value="Algoritmo" style="shape=umlFrame;whiteSpace=wrap;html=1;pointerEvents=0;recursiveResize=0;container=1;collapsible=0;width=160;fillColor=#dae8fc;strokeColor=#6c8ebf;" vertex="1" parent="1">
          <mxGeometry x="-280" y="170" width="570" height="310" as="geometry" />
        </mxCell>
        <mxCell id="tML09d7HEzUGs0Dw_Hdi-17" value="Selección algoritmo" style="endArrow=open;startArrow=none;endFill=0;startFill=0;endSize=8;html=1;verticalAlign=bottom;labelBackgroundColor=none;strokeWidth=1;rounded=0;" edge="1" parent="1" target="tML09d7HEzUGs0Dw_Hdi-6">
          <mxGeometry width="160" relative="1" as="geometry">
            <mxPoint x="-180" y="160" as="sourcePoint" />
            <mxPoint x="-70" y="160" as="targetPoint" />
          </mxGeometry>
        </mxCell>
        <mxCell id="tML09d7HEzUGs0Dw_Hdi-18" value="function" style="shape=umlLifeline;perimeter=lifelinePerimeter;whiteSpace=wrap;html=1;container=0;dropTarget=0;collapsible=0;recursiveResize=0;outlineConnect=0;portConstraint=eastwest;newEdgeStyle={&quot;edgeStyle&quot;:&quot;elbowEdgeStyle&quot;,&quot;elbow&quot;:&quot;vertical&quot;,&quot;curved&quot;:0,&quot;rounded&quot;:0};" vertex="1" parent="1">
          <mxGeometry x="170" y="60" width="100" height="460" as="geometry" />
        </mxCell>
        <mxCell id="tML09d7HEzUGs0Dw_Hdi-19" value="" style="html=1;points=[];perimeter=orthogonalPerimeter;outlineConnect=0;targetShapes=umlLifeline;portConstraint=eastwest;newEdgeStyle={&quot;edgeStyle&quot;:&quot;elbowEdgeStyle&quot;,&quot;elbow&quot;:&quot;vertical&quot;,&quot;curved&quot;:0,&quot;rounded&quot;:0};" vertex="1" parent="tML09d7HEzUGs0Dw_Hdi-18">
          <mxGeometry x="45" y="130" width="10" height="80" as="geometry" />
        </mxCell>
        <mxCell id="tML09d7HEzUGs0Dw_Hdi-20" value="soluciones" style="html=1;verticalAlign=bottom;endArrow=open;dashed=1;endSize=8;edgeStyle=elbowEdgeStyle;elbow=vertical;curved=0;rounded=0;" edge="1" parent="1" source="aM9ryv3xv72pqoxQDRHE-2" target="tML09d7HEzUGs0Dw_Hdi-6">
          <mxGeometry x="-0.0045" relative="1" as="geometry">
            <mxPoint x="-50" y="440" as="targetPoint" />
            <Array as="points">
              <mxPoint x="60" y="440" />
            </Array>
            <mxPoint x="40" y="440" as="sourcePoint" />
            <mxPoint as="offset" />
          </mxGeometry>
        </mxCell>
        <mxCell id="tML09d7HEzUGs0Dw_Hdi-21" value="solución" style="html=1;verticalAlign=bottom;endArrow=open;dashed=1;endSize=8;edgeStyle=elbowEdgeStyle;elbow=vertical;curved=0;rounded=0;" edge="1" parent="1" target="tML09d7HEzUGs0Dw_Hdi-5">
          <mxGeometry x="-0.0045" relative="1" as="geometry">
            <mxPoint x="80" y="270" as="targetPoint" />
            <Array as="points">
              <mxPoint x="195" y="270" />
            </Array>
            <mxPoint x="210" y="270" as="sourcePoint" />
            <mxPoint as="offset" />
          </mxGeometry>
        </mxCell>
        <mxCell id="tML09d7HEzUGs0Dw_Hdi-23" value="recocido simulado" style="endArrow=open;startArrow=none;endFill=0;startFill=0;endSize=8;html=1;verticalAlign=bottom;labelBackgroundColor=none;strokeWidth=1;rounded=0;" edge="1" parent="1">
          <mxGeometry width="160" relative="1" as="geometry">
            <mxPoint x="-55.00000000000023" y="190" as="sourcePoint" />
            <mxPoint x="219.5" y="190" as="targetPoint" />
          </mxGeometry>
        </mxCell>
        <mxCell id="tML09d7HEzUGs0Dw_Hdi-24" value="Algoritmo genético" style="endArrow=open;startArrow=none;endFill=0;startFill=0;endSize=8;html=1;verticalAlign=bottom;labelBackgroundColor=none;strokeWidth=1;rounded=0;" edge="1" parent="1" target="aM9ryv3xv72pqoxQDRHE-1">
          <mxGeometry width="160" relative="1" as="geometry">
            <mxPoint x="-60" y="340" as="sourcePoint" />
            <mxPoint x="55" y="340" as="targetPoint" />
          </mxGeometry>
        </mxCell>
        <mxCell id="tML09d7HEzUGs0Dw_Hdi-25" value="mostrar solución" style="html=1;verticalAlign=bottom;endArrow=open;dashed=1;endSize=8;edgeStyle=elbowEdgeStyle;elbow=vertical;curved=0;rounded=0;" edge="1" parent="1">
          <mxGeometry x="-0.0045" relative="1" as="geometry">
            <mxPoint x="-180" y="289.40999999999997" as="targetPoint" />
            <Array as="points">
              <mxPoint x="-70" y="289.40999999999997" />
            </Array>
            <mxPoint x="-90" y="289.40999999999997" as="sourcePoint" />
            <mxPoint as="offset" />
          </mxGeometry>
        </mxCell>
        <mxCell id="tML09d7HEzUGs0Dw_Hdi-26" value="" style="endArrow=none;startArrow=none;endFill=0;startFill=0;endSize=8;html=1;verticalAlign=bottom;dashed=1;labelBackgroundColor=none;dashPattern=10 10;rounded=0;entryX=1.006;entryY=0.487;entryDx=0;entryDy=0;entryPerimeter=0;exitX=0;exitY=0.487;exitDx=0;exitDy=0;exitPerimeter=0;" edge="1" parent="1" source="tML09d7HEzUGs0Dw_Hdi-16" target="tML09d7HEzUGs0Dw_Hdi-16">
          <mxGeometry width="160" relative="1" as="geometry">
            <mxPoint x="-90" y="320" as="sourcePoint" />
            <mxPoint x="70" y="320" as="targetPoint" />
          </mxGeometry>
        </mxCell>
      </root>
    </mxGraphModel>
  </diagram>
</mxfile>
